<svg width="1398px" height="1098px" viewBox="0 0 1398 1098" version="1.1" xmlns="http://www.w3.org/2000/svg" xmlns:xlink="http://www.w3.org/1999/xlink">
    <!-- Generator: Sketch 48.2 (47327) - http://www.bohemiancoding.com/sketch -->
    <desc>Created with Sketch.</desc>
    <defs></defs>
    <g id="Page-1" stroke="none" stroke-width="1" fill="none" fill-rule="evenodd">
        <path d="M1253.39062,718.429688 L1270.67188,782.359375 C1239.03221,824.676734 1216.16144,854.957307 1202.05959,873.201095 C1187.95773,891.444883 1153.54349,897.084658 1098.81688,890.12042 C1067.92219,954.54821 1034.62515,997.217561 998.925754,1018.12847 C963.226356,1039.03938 905.108877,1028.58393 824.573316,986.762105 C779.002774,1057.58737 730.752532,1093 679.822588,1093 C628.892645,1093 587.962752,1057.58737 557.032909,986.762105 C488.712253,1043.35514 432.610409,1062.73112 388.727376,1044.89006 C344.844343,1027.049 322.902826,980.08733 322.902826,904.005046 C228.187507,941.796226 159.819976,941.796226 117.800233,904.005046 C75.7804909,866.213867 65.0655933,794.373132 85.6555405,688.482841 C44.2334574,662.31491 23.5224159,622.422484 23.5224159,568.805565 C23.5224159,515.188646 49.8545794,479.561203 102.518907,461.923236 C23.1786641,422.171415 -7.24727,369.968345 11.2411041,305.314026 C29.7294783,240.659708 80.0930126,214.968268 162.331707,228.239705 C139.858663,171.145478 134.721918,135.939846 146.921473,122.62281 C159.121028,109.305774 201.375147,103.994075 273.683829,106.687712 C300.063751,61.8069368 322.944725,37.8417987 342.326752,34.7922974 C361.708779,31.7427962 400.464833,46.0101772 458.594914,77.5944404 C490.146126,32.3393392 516.915792,8.25312552 538.903912,5.33579941 C560.892031,2.4184733 594.380481,18.5097981 639.36926,53.6097739 L679.822588,34.7922974 C712.736741,24.8706028 738.201713,24.8706028 756.217504,34.7922974 C774.233294,44.7139921 792.284166,68.6791303 810.370119,106.687712 L1393,148.986025 L1393,378.722174 C1393,394.333825 1390.46132,409.841592 1385.48336,424.638331 L1377.8593,447.30044 C1368.81243,474.191786 1343.60743,492.305376 1315.23507,492.305376 L1271.57167,492.305367 C1232.37029,492.305367 1198.58442,464.714335 1190.75094,426.303604 C1182.71673,386.908627 1172.63074,331.959877 1160.49297,261.457355 L1126.81312,261.457355 C1117.47713,335.9266 1110.4771,390.87535 1105.81301,426.303604 C1099.87789,471.386606 1061.44826,505.088608 1015.97626,505.088608 L886.296364,505.088605 C847.741616,505.088605 811.744332,485.796449 790.39541,453.692055 L781.313066,440.034076 C764.94802,415.424407 756.217504,386.528766 756.217504,356.97457 L756.217504,148.986025 C671.798767,204.400492 610.169551,218.254109 571.329856,190.546875 C536.088689,165.406738 457.443423,151.672043 335.39406,149.34279 C331.13651,149.261537 326.975084,150.612876 323.577533,153.179971 C315.20525,159.505834 313.546298,171.421035 319.87216,179.793318 C340.982683,207.733107 360.180496,232.954754 377.465601,255.458259 C400.891499,285.956474 451.607393,294.798512 529.613281,281.984375 L571.329856,287.398758 L571.329856,568.805565 C655.841545,579.422102 713.447304,595.669653 744.14713,617.548219 C774.846957,639.426784 801.655686,683.338135 824.573316,749.282271 C973.943032,752.152313 1073.23259,752.152313 1122.442,749.282271 C1171.65141,746.412229 1215.30095,736.128035 1253.39062,718.429688 Z M811.609375,146.726562 C811.609375,222.21875 811.609375,297.526693 811.609375,372.650391 C811.609375,391.995987 813.847351,410.171298 818.323303,427.176325 C824.331875,450.004077 844.96285,465.920809 868.568121,465.940042 L1014.97883,466.059339 C1029.5818,466.071237 1043.42912,459.56933 1052.74707,448.325539 L1067.60338,430.398707 C1073.61596,423.143435 1077.50097,414.364253 1078.82735,405.03522 L1099.45312,259.964844 L1099.45312,171.050781 L811.609375,146.726562 Z M1176.58398,173.044922 C1179.47294,212.353101 1182.39351,242.217685 1185.3457,262.638672 C1188.71402,285.93814 1198.45631,339.625576 1214.57257,423.700981 C1219.26854,448.198969 1240.69876,465.91143 1265.64276,465.91143 L1319.51351,465.91143 C1342.26008,465.91143 1361.85847,449.888238 1366.37891,427.595364 L1373.21658,393.874841 C1373.83651,390.817592 1374.17464,387.709913 1374.22671,384.590879 L1376.30664,260 L1376.30664,181.822266 L1176.58398,173.044922 Z M1124.23556,496.605664 C1129.3921,495.407373 1149.25101,492.665558 1151.36689,494.068294 C1152.91437,497.738083 1154.46282,501.407664 1156.01225,505.077037 C1156.92872,507.108893 1160.56952,514.112986 1159.50867,516.100992 C1150.85118,530.422953 1121.80193,520.180818 1111.75628,518.174583 L1099.48604,516.861005 L1099.83342,516.326092 C1100.85373,508.952835 1108.73042,503.001119 1115.86511,499.537035 L1124.23556,496.605664 Z M1177.00036,519.908433 C1176.97536,507.627367 1178.24636,500.62757 1182.41336,494 C1197.68336,496.377175 1205.81136,505.200642 1211.28336,519.363386 L1211.28336,519.636514 C1199.96636,519.411727 1188.48636,519.915684 1177.00036,519.908433 Z" id="Path-2" stroke="#CFD8DC" stroke-width="10" fill="#F5F5F5"></path>
    </g>
</svg>
