<svg version="1" xmlns="http://www.w3.org/2000/svg" width="1864" height="1864" viewBox="0 0 1398.000000 1398.000000"><path d="M532.8 151.6c-6.9 1.8-16.4 6.7-24.3 12.6-7.1 5.3-24.3 21.9-30.2 29.3-10 12.4-14.7 18.5-17.5 22.7-1.7 2.7-3.3 4.8-3.4 4.8-.2 0-8.6-4.2-18.6-9.3-29-14.7-54.8-25.6-66.8-28.2-.8-.1-3.4-.8-5.7-1.4-10-2.7-21.9-3.3-28.3-1.3-20.3 6.2-38.2 24.8-65.6 68.2l-1.6 2.5h-29.6c-49.1 0-71.5 2.9-88.3 11.3-16.4 8.2-20.5 23.3-14.9 54.2 1 5.2 1.4 7.1 4.1 17.2.6 2.4 3.6 11.6 6.5 20.5 3 8.9 5.4 16.5 5.4 16.8 0 .3-1.7.3-3.7-.1-6.7-1-41.6-1.3-47.8-.3-3.3.5-7.1 1.1-8.5 1.3-11.2 1.7-24.4 6.2-35.5 12.1-29.2 15.4-48.8 46.1-55.9 87.3-1.3 7.7-1.4 30.3-.1 37.2 2.6 14.2 8.5 28.9 16.3 41 14 21.5 41.5 45.4 67.4 58.7 3.2 1.6 4.5 3.3 2.7 3.3-.7 0-4.4 1.6-8.3 3.6-35 17.9-54.2 43.4-60.2 80.2-1.5 9.4-2.2 35.2-1.1 41.7.3 1.6.9 5.5 1.2 8.5 2.2 18.7 10.8 41.6 21.6 57.6 8.2 12.3 21.5 25.8 33.1 33.7 5.1 3.4 5.1 3.5 3.3 12.7-.8 3.9-1.3 7.1-2 12-.3 2.5-.8 5.6-1 7-.2 1.4-.7 4.5-1 7-1.1 9.5-1.6 13.6-2 16.8-1.7 14-2.4 52.5-1.2 62.2.4 2.5.9 7.2 1.3 10.4.3 3.3.7 6.4.9 7 .1.6.5 3.3.9 6.1 1.9 12.5 7 28.9 12.8 41.5 10.8 23.3 28.5 41.9 51.1 53.8 5.8 3.1 21.4 8.7 27.1 9.8 1.7.3 3.6.7 4.1.8.9.2 4.6.8 14 2.2 3.9.5 31.3.5 34.5 0 1.4-.3 5-.7 8.1-1 21.4-2 60.2-12 85.7-22l6.2-2.5.1 4.7c0 2.6.2 6.3.4 8.2.2 1.9.6 6.9.9 11 3.8 47.4 20.3 83.2 47.4 103.2 10.6 7.9 26.2 14.5 38.2 16.4 2.5.3 5.4.8 6.5 1 2.8.6 21 .5 23.8-.1 1.2-.2 4-.7 6.1-1 27.9-3.9 66.3-23.1 103.5-51.8 7.4-5.7 10.6-7.6 11-6.6.5 1.7 9.9 19.8 13 25.4 25 43.5 58.2 69.8 95.1 75.3 5.5.8 25.8.8 32 0 11.3-1.5 25.7-6.1 38.3-12.4 29.6-14.9 61.9-46 87.1-84.1l4.8-7.1 4.6 2.2c21 10.1 26.3 12.6 26.7 12.6.4 0 2.7 1 5.3 2.1 29.6 13.5 63.9 22.5 88.9 23.2 31.8 1 51.8-7.8 80.7-35.3 22-21 42-49.6 63.2-90.5 3.5-6.6 6.6-11.9 7.1-11.8 8.1 1.6 47 2.3 57.8 1.1 11.3-1.3 23.3-4.8 32.1-9.2 6-3.1 12.2-9.7 24-25.3 13.4-17.9 12.6-16.8 15.7-20.8 1.3-1.7 10-13.1 19.2-25.5 9.3-12.4 17.1-22.7 17.5-23 .3-.3 2-2.5 3.8-5 3.4-4.9 3.4-4.9.4-15.6-1.1-3.8-2.9-10.5-4.1-14.9-1.2-4.4-3.7-13.9-5.7-21-2-7.2-4.2-15.4-4.9-18.3-.7-2.9-1.5-5.6-1.8-5.9-.4-.3-4.8 1.3-9.9 3.5-15.4 6.7-39.2 15-47.4 16.6-1 .2-3.7.9-5.9 1.4-2.2.6-5.1 1.3-6.5 1.6-1.4.3-3.6.8-5 1.1-1.4.3-3.8.8-5.5 1-1.6.3-6.6 1.2-11 2s-10.9 1.7-14.5 2.1c-3.6.3-7.2.7-8 .9-2.7.5-19.3 1.7-28.5 2.1-58.5 2.2-139.2 2.2-273.8 0-6.4-.1-12.1-.6-12.6-1.2-.4-.5-2.3-5-4.1-9.9-10.4-28.4-24.8-57.9-38-77.5-25.2-37.3-48.4-53.7-98-69.1-16.6-5.2-51.3-13.3-65.7-15.5-2.1-.3-7.2-1.1-11.4-1.9-4.2-.8-9.8-1.7-12.5-2-2.7-.3-8-1-11.9-1.6-3.8-.6-7.7-1.2-8.5-1.3-1.3-.1-1.5-16.5-1.5-140.3-.1-77.1-.3-140.4-.6-140.7-.5-.5-4.6-1.4-10.4-2.1-21.9-2.7-29.5-3.7-32.2-4.1-1.8-.3-6.7 0-11 .5-4.3.6-10 1.3-12.8 1.6-2.7.4-5.7.8-6.5 1-6.4 1.7-43.8 2.4-56.8 1.2-24.6-2.4-44.7-10-57.3-21.6-3-2.7-12.4-14.1-20.9-25.2-8.5-11.2-15.8-20.9-16.2-21.4-.5-.6-5.8-7.5-11.8-15.5-6-8-11.3-15-11.7-15.5-7.3-9.1-8.7-14.4-5.6-20.5 2.9-5.6 8.3-7.8 19-7.4 22 .6 46.1 1.6 49.3 1.9 1.9.2 8.5.6 14.5.9 6.1.4 12.8.9 15 1.1 2.2.3 9.4.9 16 1.5 11.1 1 15 1.4 21.5 2.5 1.4.2 4.8.6 7.5 1 6.6.8 21.9 3.3 27.5 4.5 2.5.5 6 1.2 7.9 1.5 1.9.3 3.7.7 4 .9.3.2 2.2.7 4.1 1 5 .8 24 6.3 31.7 9.2 9 3.4 20.4 9.2 29 14.8 37.5 24.3 88.8 16.6 159.5-24 7.3-4.2 15.2-9 17.6-10.6 3.6-2.5 4.2-2.7 4.2-1.1.4 142.5.9 213.6 1.4 216.8 4.9 28.9 11.9 46.7 27.6 70.5 10.5 15.9 12.7 18.6 22.7 28.6 9.3 9.3 21.3 17.7 32.9 23 8.1 3.7 20.6 7.9 25.9 8.7 1.7.3 4.1.8 5.5 1.1 5.9 1.3 18.3 1.6 85.5 1.6 75.3 0 80.1-.2 93.6-4.8 25.1-8.7 45.1-26.5 56.4-50.4 3.9-8.1 8-23 8.9-32.3.3-3.3.8-7.1 1-8.5.3-1.4.7-5 1.1-8.1.3-3.1.7-6.6 1-7.7.2-1.1.6-4.8 1-8.1.3-3.3.8-6.9 1-8 .2-1.1.6-4.8 1-8.3.3-3.5.8-7 1-7.8.2-.8.6-4 1-7 .3-3 .7-6.4.9-7.5.2-1.1.7-4.7 1-8 .4-3.3.9-7.4 1.1-9 .6-4.2 1.3-9.1 2-15 1.3-10.5 2.6-21.1 3-23.5.2-1.4.7-5.2 1-8.5.3-3.3.8-6.7 1-7.5.2-.8.7-4 1-7 .4-3 .9-5.8 1-6.1.3-.4 22.2-.5 24.6 0 .3.1 1.2 4 1.9 8.8.8 4.9 1.5 9.2 1.6 9.8.3 1.5 1.1 5.9 2.9 16 1.5 8.3 3.8 21.4 4.9 27.5.3 1.4 1.4 7.7 2.5 14s3.4 18.9 5.2 28c1.7 9.1 3.5 18.5 4 21 .4 2.5 1.1 5.8 1.4 7.5 5.9 32 7.9 39.4 13.4 50.3 12.7 25.1 39.1 43.5 67.2 46.8 7.1.9 58 .8 64.2 0 2.6-.4 5.8-1.1 7.2-1.6 1.4-.5 2.5-.7 2.5-.5 0 1 13-5.2 19-9.1 10.7-7 21-18.8 25.6-29.4 4.9-11 14.2-40.8 15.9-50.5.2-1.7.8-4.1 1.2-5.5.4-1.4.9-59.5 1-129.3l.4-126.7-5.3-.1c-2.9-.1-6.2-.3-7.3-.4-1.8-.2-6.7-.6-27.5-2-10.8-.8-21.2-1.5-27-2-3-.3-9.1-.7-13.5-1-4.4-.3-10-.7-12.5-1-2.5-.2-9-.6-14.5-1-5.5-.3-12-.8-14.5-1-2.5-.2-8.5-.7-13.5-1-4.9-.3-11-.8-13.5-1-2.5-.2-8.5-.6-13.5-1-4.9-.3-11.5-.8-14.5-1-3-.3-9.1-.7-13.5-1-4.4-.3-9.8-.7-12-.9-2.2-.2-8.7-.7-14.5-1.1-5.8-.3-12.1-.8-14-1-1.9-.2-8.2-.6-14-1-5.8-.4-12.3-.8-14.5-1-2.2-.2-8.5-.6-14-1s-11.6-.8-13.5-1c-1.9-.2-8-.6-13.5-1s-11.6-.8-13.5-1c-1.9-.2-8.6-.6-14.9-1-6.2-.4-12.1-.8-13-1-.9-.2-6.8-.6-13.1-1s-13.1-.8-15.1-1c-2-.1-8.1-.6-13.5-1-5.5-.4-11.5-.8-13.4-1-1.9-.2-8-.6-13.5-1-5.5-.3-12.2-.8-15-1-2.7-.3-8.6-.7-13-1-12.8-.8-22.7-1.5-27.2-2-2.3-.2-8.6-.7-14-1-5.4-.3-11.6-.7-13.8-1-2.2-.2-8.5-.7-14-1-5.5-.4-12-.8-14.5-1-5.8-.5-19-1.5-26-2-14-.9-25.8-1.8-28.5-2-1.6-.2-4.2-.4-5.6-.4-2.1-.1-3-1.1-5-5.4-1.3-2.8-4.8-9.5-7.8-14.7-21-36.8-39.1-53.3-64.1-58.3-6.7-1.3-23.4-1.5-30.5-.3-21.9 3.6-27.9 5.5-49.6 15.6l-18.8 8.8-6.3-4.6c-3.5-2.6-6.5-4.9-6.8-5.2-1-1-21.8-15-22.4-15-.3 0-2.4-1.3-4.8-2.9-5.2-3.5-25.5-13.4-31.8-15.5-12.8-4.2-26.4-5.4-35.2-3zm299.7 152c5 .3 10.4.8 12 .9 1.7.2 6.6.6 11 .9 4.4.4 10.4.9 13.3 1.1 10.1.9 15.8 1.4 22.7 2 3.9.3 9.5.8 12.5 1 14.2 1.3 16.9 1.6 23 2 3.6.3 8.3.7 10.5.9 3.8.4 12.3 1.1 26 2.1 3.3.3 8 .7 10.5.9 2.5.3 7.9.8 12 1.1 4.1.3 9.5.8 12 1 2.5.2 7.9.7 12 1 4.1.3 9.5.8 12 1 2.5.3 7.2.7 10.5 1 14.5 1.2 17.4 1.4 25 2 4.4.4 9.8.8 12 1.1 4.6.4 19.3 1.6 21.5 1.6.8.1 2 .4 2.5.9 1.9 1.5 1 88.5-1 96.9-.1.3-.5 3.4-.9 7-.5 3.6-1 7.2-1.1 8-.6 3.7-2 12.6-3 20-.3 2.5-.8 5.6-1 7-.2 1.4-.7 5-1.1 8-.9 6.9-.9 7.5-1.8 13.5-.4 2.7-1 6.3-1.2 8-.2 1.6-.6 4.1-.9 5.5-.2 1.4-.7 4.7-1 7.5-.3 2.7-1.2 9.3-2 14.5-.8 5.2-1.7 11.5-2 14-4 28.8-5.6 32.8-19.5 49.5-11.4 13.6-15 17-22 20.5-10.2 5.1-10.6 5.2-95.5 4.8-43.4-.2-80.3-.7-82-1.1-1.6-.4-6.2-2.3-10.2-4.2-8.3-4.1-16.4-12.2-20.6-20.8-2.8-5.8-6.3-18.3-7.2-26.2-.3-2.8-.8-5.9-1-7-1.5-7.4-1.8-31.8-1.9-133-.1-62.7 0-114.6.2-115.2.3-.8 1.6-1.1 3.5-.8 1.8.2 7.3.7 12.2 1.1zm374.6 25.9c9 .4 20.2.8 24.9 1 24.9 1 38.4 1.6 46.5 2 5 .2 14.9.7 22 1 7.2.3 16.8.7 21.5 1 9.3.5 37.9 1.7 44.8 1.8 3 .1 4.2.5 4.3 1.7.4 7 0 83-.6 117.5-1.4 89.8-1.1 82.4-4 96-.9 4.4-1.9 9.1-2.1 10.5-1.4 7.6-3.9 18-5.2 21.5-4.2 11-13.4 20.1-24.7 24.6-5.9 2.3-6.8 2.4-40 2.6-37 .3-39.8 0-50.5-5.4-6.9-3.4-17.2-13.7-20-20-2.4-5.3-4.5-12-5.4-17.3-.3-1.9-.8-4.5-1-5.8-.3-1.2-1.7-8.6-3.2-16.5-3.3-17.8-2.4-13.2-8.9-47.7-3.1-16.2-5.8-30.6-6-32-.2-1.4-.6-3.9-.9-5.5-.9-5-6.7-38.8-7.2-42-.2-1.7-.6-4.1-.9-5.5-.5-2.8-1.1-7.6-2-16.1-.3-3.1-.7-6.5-.9-7.5-.4-2-1.3-10.5-2.1-20.9-.3-3.3-.7-8.5-1-11.5-.3-3-.7-8.2-1-11.5-.3-3.3-.8-8.5-1.1-11.6l-.5-5.6 4.4.2c2.4.2 11.8.6 20.8 1z"/><path d="M1178.7 640.4c-4.3 6.9-5.7 12.4-6.4 24.4l-.6 10.3 22.5-.3 22.4-.2-.3-3.5c-.4-5.3-5.8-15.5-11.1-20.8-5.5-5.6-11.4-8.8-19.4-10.7-5.5-1.3-5.8-1.2-7.1.8zM1136.8 639.6c-.2.1-3 .6-6.2.9-17 2-28.8 9.8-35.9 23.6l-3.4 6.7 5.1.7c2.8.3 6.9.9 9.1 1.1 7.7 1 9.1 1.2 15 2.7 21.8 5.6 36.4 3.5 42.7-6.1 2.3-3.5 1.8-5.8-3.9-19.3l-4.7-11-8.8.2c-4.8.1-8.9.3-9 .5z"/></svg>